<svg xmlns="http://www.w3.org/2000/svg" viewBox="5 5 90 90"><rect width="6.6" height="13.6" x="72.8" y="5" rx="3.3" ry="3.3"/><path d="M23.9 5a3.3 3.3 0 013.3 3.3v7a3.3 3.3 0 01-3.3 3.3 3.3 3.3 0 01-3.4-3.3v-7A3.3 3.3 0 0124 5zM37 43.8h8.6a1.3 1.3 0 011.3 1.2v3.5a1.3 1.3 0 01-1.3 1.3H37a1.3 1.3 0 01-1.3-1.3V45a1.3 1.3 0 011.3-1.2zM54.4 43.8H63a1.3 1.3 0 011.3 1.2v3.5a1.3 1.3 0 01-1.3 1.3h-8.6a1.3 1.3 0 01-1.3-1.3V45a1.3 1.3 0 011.3-1.2z"/><rect width="11.2" height="6" x="70.6" y="43.8" rx="1.3" ry="1.3"/><rect width="11.2" height="6" x="18.2" y="58.5" rx="1.3" ry="1.3"/><path d="M37 58.5h8.6a1.3 1.3 0 011.3 1.3v3.4a1.3 1.3 0 01-1.3 1.3H37a1.3 1.3 0 01-1.3-1.3v-3.4a1.3 1.3 0 011.3-1.3zM54.4 58.5H63a1.3 1.3 0 011.3 1.3v3.4a1.3 1.3 0 01-1.3 1.3h-8.6a1.3 1.3 0 01-1.3-1.3v-3.4a1.3 1.3 0 011.3-1.3z"/><rect width="11.2" height="6" x="70.6" y="58.5" rx="1.3" ry="1.3"/><path d="M19.5 73.3h8.7a1.3 1.3 0 011.2 1.2V78a1.3 1.3 0 01-1.2 1.3h-8.7a1.3 1.3 0 01-1.3-1.3v-3.5a1.3 1.3 0 011.3-1.2zM37 73.3h8.6a1.3 1.3 0 011.3 1.2V78a1.3 1.3 0 01-1.3 1.3H37a1.3 1.3 0 01-1.3-1.3v-3.5a1.3 1.3 0 011.3-1.2z"/><rect width="11.2" height="6" x="53.1" y="73.3" rx="1.3" ry="1.3"/><path d="M89.6 11.8h-6.1v3.5a7.3 7.3 0 01-8.3 7.2 7.5 7.5 0 01-6.4-7.5v-3.2H31.2v3.5a7.3 7.3 0 01-8.3 7.2 7.5 7.5 0 01-6.3-7.5v-3.2h-6.2A5.4 5.4 0 005 17.2v72.4a5.4 5.4 0 005.4 5.4h79.2a5.4 5.4 0 005.4-5.4V17.2a5.4 5.4 0 00-5.4-5.4zm-1.6 75a1.3 1.3 0 01-1.3 1.2H13.3a1.3 1.3 0 01-1.3-1.3V36.3a1.3 1.3 0 011.3-1.3h73.4a1.3 1.3 0 011.3 1.3z"/></svg>