<svg xmlns="http://www.w3.org/2000/svg" viewBox="1.59 1.58 22.22 22.23"><path d="M23.27 1.58a.53.53 0 00-.36.16l-2.27 2.27-.69-.68a1.8 1.8 0 00-1.25-.6c-.26-.01-.5.03-.78.07l-3.7.51c-1.37.2-2.06.78-2.94 1.6L2.17 13.4h-.01c-.4.4-.57.93-.57 1.45 0 .52.16 1.08.6 1.45l-.03-.03 6.97 6.97-.03-.03c.37.44.93.6 1.45.6a2.04 2.04 0 001.45-.58l.63-.67 2.5.93a2 2 0 001.56-.06c.48-.22.89-.6 1.08-1.12l2.73-8.2c.82-.87 1.4-1.57 1.59-2.92l.51-3.7c.04-.3.08-.53.07-.8a1.87 1.87 0 00-.6-1.24l-.68-.69 2.27-2.27a.53.53 0 00-.39-.9zm-4.6 2.2c.21.01.25.02.54.3l.68.68-1.22 1.22c-.2-.1-.43-.16-.68-.16a1.6 1.6 0 00-1.59 1.59 1.6 1.6 0 003.18 0c0-.25-.06-.48-.16-.68l1.22-1.22.68.68c.28.29.29.33.3.54 0 .12-.03.32-.07.6l-.51 3.71c-.16 1.15-.5 1.48-1.32 2.36l-8.48 9.1c-.14.14-.42.25-.7.25-.28 0-.53-.1-.64-.22a.53.53 0 00-.03-.03L2.9 15.53a.53.53 0 00-.03-.03c-.13-.11-.23-.36-.22-.64 0-.28.11-.56.25-.7L12 5.68c.88-.82 1.21-1.16 2.36-1.32l3.7-.51c.29-.04.5-.07.61-.06zM18 6.89c.3 0 .53.23.53.53 0 .3-.23.53-.53.53a.52.52 0 01-.53-.53c0-.3.23-.53.53-.53zM9 12.7c-.47 0-.7.57-.37.9l3.18 3.18c.5.5 1.24-.25.74-.75l-3.17-3.17A.53.53 0 009 12.7zm-1.6 1.58a.53.53 0 00-.37.91l3.18 3.18c.5.53 1.28-.25.75-.75l-3.18-3.18a.53.53 0 00-.38-.16zm11.37 1.7l-2 5.97c-.06.18-.27.4-.53.52a.9.9 0 01-.67.06l-2.16-.8z"/></svg>
